<?xml version="1.0" standalone="no"?>
<!DOCTYPE svg PUBLIC "-//W3C//DTD SVG 20010904//EN"
 "http://www.w3.org/TR/2001/REC-SVG-20010904/DTD/svg10.dtd">
<svg version="1.0" xmlns="http://www.w3.org/2000/svg"
 width="1024.000000pt" height="1024.000000pt" viewBox="0 0 1024.000000 1024.000000"
 preserveAspectRatio="xMidYMid meet">
<metadata>
Created by potrace 1.11, written by Peter Selinger 2001-2013
</metadata>
<g transform="translate(0.000000,1024.000000) scale(0.100000,-0.100000)"
fill="#000000" stroke="none">
<path d="M0 5120 l0 -3840 2720 0 2720 0 480 480 480 480 480 -480 480 -480
1440 0 1440 0 0 3840 0 3840 -1600 0 -1600 0 -320 -320 -320 -320 -320 320
-320 320 -2880 0 -2880 0 0 -3840z m5760 1920 l640 -640 640 640 640 640 640
0 640 0 0 -2560 0 -2560 -640 0 -640 0 0 1755 c0 965 -2 1755 -5 1755 -3 0
-291 -286 -640 -635 l-635 -635 -640 640 -640 640 0 -1760 0 -1760 -1920 0
-1920 0 0 2560 0 2560 1920 0 1920 0 640 -640z"/>
<path d="M3765 7351 c-241 -63 -325 -363 -150 -536 69 -67 126 -90 225 -89 96
0 153 21 213 78 206 194 88 536 -191 551 -37 2 -80 1 -97 -4z"/>
<path d="M2560 5920 l0 -480 613 -1 c568 -1 609 -2 567 -16 -84 -29 -152 -90
-191 -171 -33 -69 -33 -198 0 -264 43 -85 107 -142 191 -171 42 -15 2 -16
-567 -17 l-613 0 0 -480 0 -480 640 0 640 0 0 480 0 480 23 0 c33 0 117 29
152 53 47 32 91 83 116 135 34 70 33 198 -1 266 -54 108 -161 180 -272 185
-17 1 -18 31 -18 481 l0 480 -640 0 -640 0 0 -480z"/>
<path d="M3765 3511 c-241 -63 -325 -363 -150 -536 69 -67 126 -90 225 -89 96
0 153 21 213 78 206 194 88 536 -191 551 -37 2 -80 1 -97 -4z"/>
</g>
</svg>
